<svg width="452" height="237" viewBox="0 0 452 237" fill="none" xmlns="http://www.w3.org/2000/svg">
<g opacity="0.25" filter="url(#filter0_f)">
<path d="M225.362 193.04C225.362 191.226 225.922 190.32 227.042 190.32C227.149 190.32 227.269 190.333 227.402 190.36C227.856 190.44 228.082 190.786 228.082 191.4C228.082 192.013 227.976 192.786 227.762 193.72C227.549 194.413 227.402 194.933 227.322 195.28C227.402 195.733 227.616 196.32 227.962 197.04C228.336 197.733 228.829 198.08 229.442 198.08C230.082 198.08 230.789 197.653 231.562 196.8C231.722 196.613 231.869 196.52 232.002 196.52C232.162 196.52 232.242 196.613 232.242 196.8C232.269 196.96 232.176 197.186 231.962 197.48C231.136 198.466 230.269 198.96 229.362 198.96C228.056 198.96 227.002 198 226.202 196.08C225.376 197.973 224.202 199.613 222.682 201C221.162 202.36 219.656 203.04 218.162 203.04C216.749 203.04 216.042 201.973 216.042 199.84C216.042 198.16 217.602 195.066 220.722 190.56C223.869 186.053 226.269 183.8 227.922 183.8C228.269 183.8 228.576 183.906 228.842 184.12C229.136 184.333 229.282 184.586 229.282 184.88C229.282 184.853 229.082 185.053 228.682 185.48C228.309 185.906 227.256 187.053 225.522 188.92C223.816 190.786 222.136 192.84 220.482 195.08C218.829 197.32 218.002 199.053 218.002 200.28C218.002 200.6 218.082 200.946 218.242 201.32C218.429 201.693 218.722 201.88 219.122 201.88C220.296 201.88 221.669 200.973 223.242 199.16C224.549 197.56 225.349 196.213 225.642 195.12C225.456 194.56 225.362 193.866 225.362 193.04ZM228.612 207.64C229.892 209.24 230.998 210.04 231.932 210.04C233.452 210.04 235.092 208.826 236.852 206.4C238.132 204.613 239.385 202.36 240.612 199.64L242.132 195.96L236.252 200.56C234.438 201.973 232.985 202.68 231.892 202.68C231.305 202.68 230.838 202.48 230.492 202.08C230.145 201.68 229.972 201.226 229.972 200.72C229.972 199.573 230.958 197.693 232.932 195.08C234.905 192.44 236.345 191.12 237.252 191.12C238.158 191.12 238.612 191.426 238.612 192.04C238.612 192.28 237.425 193.666 235.052 196.2C232.705 198.706 231.532 200.4 231.532 201.28C231.532 201.626 231.758 201.8 232.212 201.8C233.065 201.8 234.772 200.8 237.332 198.8C239.918 196.8 241.865 195.146 243.172 193.84C243.465 193.493 243.878 192.973 244.412 192.28C244.918 191.693 245.478 191.4 246.092 191.4C246.705 191.4 247.012 191.693 247.012 192.28C247.012 192.386 246.412 193.333 245.212 195.12C244.012 196.906 243.385 197.853 243.332 197.96C242.505 199.56 241.238 201.893 239.532 204.96C236.945 209.12 234.358 211.2 231.772 211.2C230.918 211.2 230.172 210.826 229.532 210.08C228.892 209.36 228.585 208.546 228.612 207.64ZM294.156 163.88C294.156 165.533 293.676 166.36 292.716 166.36C292.449 166.36 292.182 166.146 291.916 165.72C291.436 164.866 290.636 164.44 289.516 164.44C287.062 164.44 284.769 166.2 282.636 169.72C282.209 170.413 280.876 172.92 278.636 177.24H279.596C285.409 177.24 289.276 177.16 291.196 177C291.409 177.053 291.516 177.16 291.516 177.32C291.516 177.746 289.622 178.333 285.836 179.08C282.262 179.666 279.329 180.173 277.036 180.6C275.382 184.013 273.382 188.066 271.036 192.76C266.236 201.72 263.062 207.293 261.516 209.48C256.876 216.093 252.342 219.4 247.916 219.4C246.369 219.4 245.036 218.733 243.916 217.4C242.742 216.12 242.129 214.68 242.076 213.08C242.236 212.44 242.476 212.12 242.796 212.12C242.956 212.12 243.062 212.306 243.116 212.68C243.436 214.066 243.969 215.133 244.716 215.88C245.462 216.626 246.236 217 247.036 217C251.569 217 255.702 214.2 259.436 208.6C261.569 205.4 264.476 199.64 268.156 191.32L272.476 180.92C267.142 180.866 264.476 180.226 264.476 179C264.476 178.466 264.716 178.013 265.196 177.64C265.729 177.266 266.182 177.08 266.556 177.08L274.076 177.24C279.302 165.613 284.102 159.8 288.476 159.8C290.129 159.8 291.809 160.6 293.516 162.2C293.942 162.626 294.156 163.186 294.156 163.88ZM289.571 186.68C289.971 186.68 290.344 186.813 290.691 187.08C291.064 187.32 291.251 187.613 291.251 187.96C291.251 188.306 291.077 188.613 290.731 188.88C290.411 189.12 290.051 189.24 289.651 189.24C289.251 189.24 288.877 189.093 288.531 188.8C288.211 188.506 288.051 188.173 288.051 187.8C288.051 187.053 288.557 186.68 289.571 186.68ZM282.331 203.44C280.971 203.44 280.291 202.56 280.291 200.8C280.291 199.36 281.077 197.373 282.651 194.84C284.224 192.28 285.491 190.986 286.451 190.96C286.717 190.96 287.011 191.066 287.331 191.28C287.677 191.493 287.851 191.706 287.851 191.92C287.717 192.106 287.557 192.32 287.371 192.56C287.184 192.773 286.984 193.013 286.771 193.28C286.557 193.546 286.264 193.933 285.891 194.44C285.517 194.92 285.157 195.386 284.811 195.84C282.811 198.426 281.811 200.213 281.811 201.2C281.811 202.16 282.144 202.64 282.811 202.64C283.371 202.64 284.131 202.333 285.091 201.72C287.331 200.333 289.104 198.813 290.411 197.16C290.891 196.546 291.211 196.24 291.371 196.24C291.557 196.24 291.651 196.346 291.651 196.56C291.651 196.773 291.344 197.2 290.731 197.84C290.117 198.48 289.624 198.986 289.251 199.36C288.904 199.733 288.664 199.986 288.531 200.12C288.397 200.226 288.144 200.453 287.771 200.8C287.424 201.12 287.157 201.346 286.971 201.48C286.784 201.613 286.517 201.813 286.171 202.08C285.824 202.346 285.517 202.546 285.251 202.68C284.984 202.786 284.677 202.92 284.331 203.08C283.771 203.32 283.104 203.44 282.331 203.44ZM299.034 193.04C299.034 191.226 299.594 190.32 300.714 190.32C300.821 190.32 300.941 190.333 301.074 190.36C301.527 190.44 301.754 190.786 301.754 191.4C301.754 192.013 301.647 192.786 301.434 193.72C301.221 194.413 301.074 194.933 300.994 195.28C301.074 195.733 301.287 196.32 301.634 197.04C302.007 197.733 302.501 198.08 303.114 198.08C303.754 198.08 304.461 197.653 305.234 196.8C305.394 196.613 305.541 196.52 305.674 196.52C305.834 196.52 305.914 196.613 305.914 196.8C305.941 196.96 305.847 197.186 305.634 197.48C304.807 198.466 303.941 198.96 303.034 198.96C301.727 198.96 300.674 198 299.874 196.08C299.047 197.973 297.874 199.613 296.354 201C294.834 202.36 293.327 203.04 291.834 203.04C290.421 203.04 289.714 201.973 289.714 199.84C289.714 198.16 291.274 195.066 294.394 190.56C297.541 186.053 299.941 183.8 301.594 183.8C301.941 183.8 302.247 183.906 302.514 184.12C302.807 184.333 302.954 184.586 302.954 184.88C302.954 184.853 302.754 185.053 302.354 185.48C301.981 185.906 300.927 187.053 299.194 188.92C297.487 190.786 295.807 192.84 294.154 195.08C292.501 197.32 291.674 199.053 291.674 200.28C291.674 200.6 291.754 200.946 291.914 201.32C292.101 201.693 292.394 201.88 292.794 201.88C293.967 201.88 295.341 200.973 296.914 199.16C298.221 197.56 299.021 196.213 299.314 195.12C299.127 194.56 299.034 193.866 299.034 193.04ZM312.683 203.2C310.683 203.2 309.683 202.093 309.683 199.88C309.683 198.76 309.977 197.533 310.563 196.2C311.15 194.866 311.79 193.746 312.483 192.84C312.35 192.866 312.177 192.88 311.963 192.88C311.323 192.88 310.79 192.426 310.363 191.52L307.403 195.36C305.75 197.413 304.79 198.44 304.523 198.44C304.39 198.44 304.323 198.386 304.323 198.28C304.323 198.013 304.55 197.626 305.003 197.12C307.323 194.426 308.963 192.146 309.923 190.28C310.537 187.96 311.31 186.8 312.243 186.8C312.857 186.8 313.163 187.066 313.163 187.6C313.163 188.133 312.83 188.813 312.163 189.64L311.203 190.92C311.203 191.48 311.617 191.76 312.443 191.76C312.923 191.76 313.457 191.586 314.043 191.24L315.083 190.6C315.137 190.573 315.27 190.56 315.483 190.56C315.697 190.56 315.923 190.693 316.163 190.96C316.403 191.226 316.483 191.466 316.403 191.68L313.643 195.16C311.937 197.346 311.083 199.08 311.083 200.36C311.083 201.613 311.67 202.24 312.843 202.24C314.07 202.24 315.577 201.586 317.363 200.28C318.43 199.506 319.403 198.64 320.283 197.68C321.11 196.72 321.563 196.24 321.643 196.24C321.83 196.24 321.923 196.346 321.923 196.56C321.923 196.746 321.803 196.973 321.563 197.24L320.283 198.68C319.563 199.426 318.763 200.146 317.883 200.84C315.777 202.413 314.043 203.2 312.683 203.2ZM328.946 186.68C329.346 186.68 329.719 186.813 330.066 187.08C330.439 187.32 330.626 187.613 330.626 187.96C330.626 188.306 330.452 188.613 330.106 188.88C329.786 189.12 329.426 189.24 329.026 189.24C328.626 189.24 328.252 189.093 327.906 188.8C327.586 188.506 327.426 188.173 327.426 187.8C327.426 187.053 327.932 186.68 328.946 186.68ZM321.706 203.44C320.346 203.44 319.666 202.56 319.666 200.8C319.666 199.36 320.452 197.373 322.026 194.84C323.599 192.28 324.866 190.986 325.826 190.96C326.092 190.96 326.386 191.066 326.706 191.28C327.052 191.493 327.226 191.706 327.226 191.92C327.092 192.106 326.932 192.32 326.746 192.56C326.559 192.773 326.359 193.013 326.146 193.28C325.932 193.546 325.639 193.933 325.266 194.44C324.892 194.92 324.532 195.386 324.186 195.84C322.186 198.426 321.186 200.213 321.186 201.2C321.186 202.16 321.519 202.64 322.186 202.64C322.746 202.64 323.506 202.333 324.466 201.72C326.706 200.333 328.479 198.813 329.786 197.16C330.266 196.546 330.586 196.24 330.746 196.24C330.932 196.24 331.026 196.346 331.026 196.56C331.026 196.773 330.719 197.2 330.106 197.84C329.492 198.48 328.999 198.986 328.626 199.36C328.279 199.733 328.039 199.986 327.906 200.12C327.772 200.226 327.519 200.453 327.146 200.8C326.799 201.12 326.532 201.346 326.346 201.48C326.159 201.613 325.892 201.813 325.546 202.08C325.199 202.346 324.892 202.546 324.626 202.68C324.359 202.786 324.052 202.92 323.706 203.08C323.146 203.32 322.479 203.44 321.706 203.44ZM332.329 203.52C332.036 203.52 331.769 203.48 331.529 203.4C329.822 202.92 328.969 201.96 328.969 200.52C328.969 198.653 330.142 196.493 332.489 194.04C334.836 191.586 336.942 190.36 338.809 190.36C339.422 190.36 339.916 190.533 340.289 190.88C340.689 191.2 340.889 191.653 340.889 192.24C340.889 192.8 340.716 193.4 340.369 194.04C340.022 194.653 339.502 194.96 338.809 194.96C338.116 194.96 337.769 194.746 337.769 194.32C337.769 194.026 337.942 193.586 338.289 193C338.662 192.386 338.849 192.066 338.849 192.04C338.849 191.986 338.809 191.96 338.729 191.96C337.982 192.04 336.956 192.573 335.649 193.56C334.369 194.546 333.489 195.373 333.009 196.04L331.449 198.32C331.182 198.746 330.982 199.253 330.849 199.84C330.742 200.426 330.689 200.866 330.689 201.16C330.689 201.453 330.849 201.786 331.169 202.16C331.516 202.533 331.996 202.72 332.609 202.72C333.942 202.72 335.596 201.946 337.569 200.4C339.542 198.826 341.062 197.333 342.129 195.92C342.262 195.76 342.422 195.68 342.609 195.68C342.796 195.68 342.889 195.733 342.889 195.84C342.889 195.946 342.822 196.08 342.689 196.24C341.222 198.186 339.462 199.893 337.409 201.36C335.382 202.8 333.689 203.52 332.329 203.52Z" fill="url(#paint0_linear)"/>
</g>
<path opacity="0.8" d="M229.362 189.04C229.362 187.226 229.922 186.32 231.042 186.32C231.149 186.32 231.269 186.333 231.402 186.36C231.856 186.44 232.082 186.786 232.082 187.4C232.082 188.013 231.976 188.786 231.762 189.72C231.549 190.413 231.402 190.933 231.322 191.28C231.402 191.733 231.616 192.32 231.962 193.04C232.336 193.733 232.829 194.08 233.442 194.08C234.082 194.08 234.789 193.653 235.562 192.8C235.722 192.613 235.869 192.52 236.002 192.52C236.162 192.52 236.242 192.613 236.242 192.8C236.269 192.96 236.176 193.186 235.962 193.48C235.136 194.466 234.269 194.96 233.362 194.96C232.056 194.96 231.002 194 230.202 192.08C229.376 193.973 228.202 195.613 226.682 197C225.162 198.36 223.656 199.04 222.162 199.04C220.749 199.04 220.042 197.973 220.042 195.84C220.042 194.16 221.602 191.066 224.722 186.56C227.869 182.053 230.269 179.8 231.922 179.8C232.269 179.8 232.576 179.906 232.842 180.12C233.136 180.333 233.282 180.586 233.282 180.88C233.282 180.853 233.082 181.053 232.682 181.48C232.309 181.906 231.256 183.053 229.522 184.92C227.816 186.786 226.136 188.84 224.482 191.08C222.829 193.32 222.002 195.053 222.002 196.28C222.002 196.6 222.082 196.946 222.242 197.32C222.429 197.693 222.722 197.88 223.122 197.88C224.296 197.88 225.669 196.973 227.242 195.16C228.549 193.56 229.349 192.213 229.642 191.12C229.456 190.56 229.362 189.866 229.362 189.04ZM232.612 203.64C233.892 205.24 234.998 206.04 235.932 206.04C237.452 206.04 239.092 204.826 240.852 202.4C242.132 200.613 243.385 198.36 244.612 195.64L246.132 191.96L240.252 196.56C238.438 197.973 236.985 198.68 235.892 198.68C235.305 198.68 234.838 198.48 234.492 198.08C234.145 197.68 233.972 197.226 233.972 196.72C233.972 195.573 234.958 193.693 236.932 191.08C238.905 188.44 240.345 187.12 241.252 187.12C242.158 187.12 242.612 187.426 242.612 188.04C242.612 188.28 241.425 189.666 239.052 192.2C236.705 194.706 235.532 196.4 235.532 197.28C235.532 197.626 235.758 197.8 236.212 197.8C237.065 197.8 238.772 196.8 241.332 194.8C243.918 192.8 245.865 191.146 247.172 189.84C247.465 189.493 247.878 188.973 248.412 188.28C248.918 187.693 249.478 187.4 250.092 187.4C250.705 187.4 251.012 187.693 251.012 188.28C251.012 188.386 250.412 189.333 249.212 191.12C248.012 192.906 247.385 193.853 247.332 193.96C246.505 195.56 245.238 197.893 243.532 200.96C240.945 205.12 238.358 207.2 235.772 207.2C234.918 207.2 234.172 206.826 233.532 206.08C232.892 205.36 232.585 204.546 232.612 203.64ZM298.156 159.88C298.156 161.533 297.676 162.36 296.716 162.36C296.449 162.36 296.182 162.146 295.916 161.72C295.436 160.866 294.636 160.44 293.516 160.44C291.062 160.44 288.769 162.2 286.636 165.72C286.209 166.413 284.876 168.92 282.636 173.24H283.596C289.409 173.24 293.276 173.16 295.196 173C295.409 173.053 295.516 173.16 295.516 173.32C295.516 173.746 293.622 174.333 289.836 175.08C286.262 175.666 283.329 176.173 281.036 176.6C279.382 180.013 277.382 184.066 275.036 188.76C270.236 197.72 267.062 203.293 265.516 205.48C260.876 212.093 256.342 215.4 251.916 215.4C250.369 215.4 249.036 214.733 247.916 213.4C246.742 212.12 246.129 210.68 246.076 209.08C246.236 208.44 246.476 208.12 246.796 208.12C246.956 208.12 247.062 208.306 247.116 208.68C247.436 210.066 247.969 211.133 248.716 211.88C249.462 212.626 250.236 213 251.036 213C255.569 213 259.702 210.2 263.436 204.6C265.569 201.4 268.476 195.64 272.156 187.32L276.476 176.92C271.142 176.866 268.476 176.226 268.476 175C268.476 174.466 268.716 174.013 269.196 173.64C269.729 173.266 270.182 173.08 270.556 173.08L278.076 173.24C283.302 161.613 288.102 155.8 292.476 155.8C294.129 155.8 295.809 156.6 297.516 158.2C297.942 158.626 298.156 159.186 298.156 159.88ZM293.571 182.68C293.971 182.68 294.344 182.813 294.691 183.08C295.064 183.32 295.251 183.613 295.251 183.96C295.251 184.306 295.077 184.613 294.731 184.88C294.411 185.12 294.051 185.24 293.651 185.24C293.251 185.24 292.877 185.093 292.531 184.8C292.211 184.506 292.051 184.173 292.051 183.8C292.051 183.053 292.557 182.68 293.571 182.68ZM286.331 199.44C284.971 199.44 284.291 198.56 284.291 196.8C284.291 195.36 285.077 193.373 286.651 190.84C288.224 188.28 289.491 186.986 290.451 186.96C290.717 186.96 291.011 187.066 291.331 187.28C291.677 187.493 291.851 187.706 291.851 187.92C291.717 188.106 291.557 188.32 291.371 188.56C291.184 188.773 290.984 189.013 290.771 189.28C290.557 189.546 290.264 189.933 289.891 190.44C289.517 190.92 289.157 191.386 288.811 191.84C286.811 194.426 285.811 196.213 285.811 197.2C285.811 198.16 286.144 198.64 286.811 198.64C287.371 198.64 288.131 198.333 289.091 197.72C291.331 196.333 293.104 194.813 294.411 193.16C294.891 192.546 295.211 192.24 295.371 192.24C295.557 192.24 295.651 192.346 295.651 192.56C295.651 192.773 295.344 193.2 294.731 193.84C294.117 194.48 293.624 194.986 293.251 195.36C292.904 195.733 292.664 195.986 292.531 196.12C292.397 196.226 292.144 196.453 291.771 196.8C291.424 197.12 291.157 197.346 290.971 197.48C290.784 197.613 290.517 197.813 290.171 198.08C289.824 198.346 289.517 198.546 289.251 198.68C288.984 198.786 288.677 198.92 288.331 199.08C287.771 199.32 287.104 199.44 286.331 199.44ZM303.034 189.04C303.034 187.226 303.594 186.32 304.714 186.32C304.821 186.32 304.941 186.333 305.074 186.36C305.527 186.44 305.754 186.786 305.754 187.4C305.754 188.013 305.647 188.786 305.434 189.72C305.221 190.413 305.074 190.933 304.994 191.28C305.074 191.733 305.287 192.32 305.634 193.04C306.007 193.733 306.501 194.08 307.114 194.08C307.754 194.08 308.461 193.653 309.234 192.8C309.394 192.613 309.541 192.52 309.674 192.52C309.834 192.52 309.914 192.613 309.914 192.8C309.941 192.96 309.847 193.186 309.634 193.48C308.807 194.466 307.941 194.96 307.034 194.96C305.727 194.96 304.674 194 303.874 192.08C303.047 193.973 301.874 195.613 300.354 197C298.834 198.36 297.327 199.04 295.834 199.04C294.421 199.04 293.714 197.973 293.714 195.84C293.714 194.16 295.274 191.066 298.394 186.56C301.541 182.053 303.941 179.8 305.594 179.8C305.941 179.8 306.247 179.906 306.514 180.12C306.807 180.333 306.954 180.586 306.954 180.88C306.954 180.853 306.754 181.053 306.354 181.48C305.981 181.906 304.927 183.053 303.194 184.92C301.487 186.786 299.807 188.84 298.154 191.08C296.501 193.32 295.674 195.053 295.674 196.28C295.674 196.6 295.754 196.946 295.914 197.32C296.101 197.693 296.394 197.88 296.794 197.88C297.967 197.88 299.341 196.973 300.914 195.16C302.221 193.56 303.021 192.213 303.314 191.12C303.127 190.56 303.034 189.866 303.034 189.04ZM316.683 199.2C314.683 199.2 313.683 198.093 313.683 195.88C313.683 194.76 313.977 193.533 314.563 192.2C315.15 190.866 315.79 189.746 316.483 188.84C316.35 188.866 316.177 188.88 315.963 188.88C315.323 188.88 314.79 188.426 314.363 187.52L311.403 191.36C309.75 193.413 308.79 194.44 308.523 194.44C308.39 194.44 308.323 194.386 308.323 194.28C308.323 194.013 308.55 193.626 309.003 193.12C311.323 190.426 312.963 188.146 313.923 186.28C314.537 183.96 315.31 182.8 316.243 182.8C316.857 182.8 317.163 183.066 317.163 183.6C317.163 184.133 316.83 184.813 316.163 185.64L315.203 186.92C315.203 187.48 315.617 187.76 316.443 187.76C316.923 187.76 317.457 187.586 318.043 187.24L319.083 186.6C319.137 186.573 319.27 186.56 319.483 186.56C319.697 186.56 319.923 186.693 320.163 186.96C320.403 187.226 320.483 187.466 320.403 187.68L317.643 191.16C315.937 193.346 315.083 195.08 315.083 196.36C315.083 197.613 315.67 198.24 316.843 198.24C318.07 198.24 319.577 197.586 321.363 196.28C322.43 195.506 323.403 194.64 324.283 193.68C325.11 192.72 325.563 192.24 325.643 192.24C325.83 192.24 325.923 192.346 325.923 192.56C325.923 192.746 325.803 192.973 325.563 193.24L324.283 194.68C323.563 195.426 322.763 196.146 321.883 196.84C319.777 198.413 318.043 199.2 316.683 199.2ZM332.946 182.68C333.346 182.68 333.719 182.813 334.066 183.08C334.439 183.32 334.626 183.613 334.626 183.96C334.626 184.306 334.452 184.613 334.106 184.88C333.786 185.12 333.426 185.24 333.026 185.24C332.626 185.24 332.252 185.093 331.906 184.8C331.586 184.506 331.426 184.173 331.426 183.8C331.426 183.053 331.932 182.68 332.946 182.68ZM325.706 199.44C324.346 199.44 323.666 198.56 323.666 196.8C323.666 195.36 324.452 193.373 326.026 190.84C327.599 188.28 328.866 186.986 329.826 186.96C330.092 186.96 330.386 187.066 330.706 187.28C331.052 187.493 331.226 187.706 331.226 187.92C331.092 188.106 330.932 188.32 330.746 188.56C330.559 188.773 330.359 189.013 330.146 189.28C329.932 189.546 329.639 189.933 329.266 190.44C328.892 190.92 328.532 191.386 328.186 191.84C326.186 194.426 325.186 196.213 325.186 197.2C325.186 198.16 325.519 198.64 326.186 198.64C326.746 198.64 327.506 198.333 328.466 197.72C330.706 196.333 332.479 194.813 333.786 193.16C334.266 192.546 334.586 192.24 334.746 192.24C334.932 192.24 335.026 192.346 335.026 192.56C335.026 192.773 334.719 193.2 334.106 193.84C333.492 194.48 332.999 194.986 332.626 195.36C332.279 195.733 332.039 195.986 331.906 196.12C331.772 196.226 331.519 196.453 331.146 196.8C330.799 197.12 330.532 197.346 330.346 197.48C330.159 197.613 329.892 197.813 329.546 198.08C329.199 198.346 328.892 198.546 328.626 198.68C328.359 198.786 328.052 198.92 327.706 199.08C327.146 199.32 326.479 199.44 325.706 199.44ZM336.329 199.52C336.036 199.52 335.769 199.48 335.529 199.4C333.822 198.92 332.969 197.96 332.969 196.52C332.969 194.653 334.142 192.493 336.489 190.04C338.836 187.586 340.942 186.36 342.809 186.36C343.422 186.36 343.916 186.533 344.289 186.88C344.689 187.2 344.889 187.653 344.889 188.24C344.889 188.8 344.716 189.4 344.369 190.04C344.022 190.653 343.502 190.96 342.809 190.96C342.116 190.96 341.769 190.746 341.769 190.32C341.769 190.026 341.942 189.586 342.289 189C342.662 188.386 342.849 188.066 342.849 188.04C342.849 187.986 342.809 187.96 342.729 187.96C341.982 188.04 340.956 188.573 339.649 189.56C338.369 190.546 337.489 191.373 337.009 192.04L335.449 194.32C335.182 194.746 334.982 195.253 334.849 195.84C334.742 196.426 334.689 196.866 334.689 197.16C334.689 197.453 334.849 197.786 335.169 198.16C335.516 198.533 335.996 198.72 336.609 198.72C337.942 198.72 339.596 197.946 341.569 196.4C343.542 194.826 345.062 193.333 346.129 191.92C346.262 191.76 346.422 191.68 346.609 191.68C346.796 191.68 346.889 191.733 346.889 191.84C346.889 191.946 346.822 192.08 346.689 192.24C345.222 194.186 343.462 195.893 341.409 197.36C339.382 198.8 337.689 199.52 336.329 199.52Z" fill="url(#paint1_linear)"/>
<g opacity="0.25" filter="url(#filter1_f)">
<path d="M45.5231 96.0691C54.9922 96.0691 58.734 93.3964 61.0249 85.6073L52.7777 82.7818C51.4795 87.1345 51.0977 87.9745 45.5231 87.9745C40.5595 87.9745 38.8795 85.6836 38.8795 77.1309V54.9855H54.6868V46.8909H38.8795V33.9091H30.0977V46.8909H20.6286V54.9855H30.0977V77.1309C30.0977 90.6473 34.4504 96.0691 45.5231 96.0691ZM84.4295 96.0691C90.3859 96.0691 94.2804 94.9236 97.1059 91.9455C99.1677 94.4655 102.909 95.3055 108.789 94.9236V86.8291C103.749 87.2109 102.833 87.2873 102.833 81.8655V63.9964C102.833 52.6182 98.0222 46.7382 84.4295 46.7382C73.7386 46.7382 69.3859 51.3964 66.7895 61.8582L75.1895 63.92C76.7931 57.3527 78.1677 55.8255 84.4295 55.8255C92.1422 55.8255 94.0513 57.7345 94.0513 63.9964V65.6764H84.4295C70.9895 65.6764 66.1022 68.8836 66.1022 81.1018C66.1022 91.7927 70.9895 96.0691 84.4295 96.0691ZM84.4295 87.9745C76.564 87.9745 74.884 86.4473 74.884 81.1018C74.884 74.1527 76.6404 73.7709 84.4295 73.7709H94.0513V77.5127C94.0513 85.6836 92.1422 87.9745 84.4295 87.9745ZM132.118 109.967C145.787 109.967 150.598 104.469 150.598 90.1127V47.8073H141.816V48.2655C139.067 47.3491 135.783 46.7382 131.583 46.7382C117.685 46.7382 112.645 52.6182 112.645 66.7455C112.645 85.3018 117.456 92.48 131.583 92.48C135.707 92.48 138.99 91.7164 141.816 90.6473V90.8C141.816 99.5818 139.754 101.873 132.118 101.873C127.612 101.873 126.467 101.109 123.718 97.8255L117.303 103.324C121.427 108.287 124.94 109.967 132.118 109.967ZM131.583 84.3855C123.794 84.3855 121.503 80.4909 121.503 66.7455C121.503 57.6582 123.641 54.8327 131.583 54.8327C138.99 54.8327 141.816 56.6655 141.816 59.2618V73.6945C141.816 80.8727 138.99 84.3855 131.583 84.3855ZM201.951 95C197.293 91.2582 193.017 87.44 189.122 83.6982C191.184 79.6509 192.482 74.84 192.94 69.3418H199.355V61.2473H178.05V69.3418H184.159C183.853 72.1673 183.319 74.6873 182.555 76.9018C178.89 72.9309 175.759 68.96 173.239 65.2182L173.544 64.9891C179.424 60.4073 183.319 53.1527 183.319 46.9673C183.319 38.4145 178.202 32.84 170.49 32.84C162.471 32.84 157.202 38.72 157.202 47.7309C157.202 52.3891 159.111 58.04 162.548 64.2255C157.737 69.8764 154.759 76.3673 154.759 81.56C154.759 90.2655 160.562 96.0691 169.497 96.0691C175.224 96.0691 180.111 94.0836 184.006 90.5709C185.61 92.0218 187.29 93.5491 188.97 95H201.951ZM170.184 40.9345C172.857 40.9345 174.613 43.3782 174.613 46.9673C174.613 50.3273 172.399 54.5273 168.962 57.9636C166.977 54.0691 165.908 50.48 165.908 47.5018C165.908 43.5309 167.588 40.9345 170.184 40.9345ZM163.464 81.4836C163.464 78.5055 164.839 74.9927 167.206 71.6327C170.26 75.8327 173.85 80.2618 177.973 84.5382C175.682 86.7527 172.78 87.9745 169.497 87.9745C165.831 87.9745 163.464 85.3782 163.464 81.4836ZM228.945 96.0691C238.414 96.0691 242.156 93.3964 244.447 85.6073L236.2 82.7818C234.901 87.1345 234.52 87.9745 228.945 87.9745C223.981 87.9745 222.301 85.6836 222.301 77.1309V54.9855H238.109V46.8909H222.301V33.9091H213.52V46.8909H204.05V54.9855H213.52V77.1309C213.52 90.6473 217.872 96.0691 228.945 96.0691ZM262.811 95V70.7927C262.811 61.0945 265.408 54.8327 273.808 54.8327C278.771 54.8327 279.993 56.2836 282.055 62.6218L289.92 59.0327C286.56 49.9455 282.513 46.7382 273.808 46.7382C268.844 46.7382 264.797 49.5636 262.811 51.7018V47.8073H254.03V95H262.811ZM313.707 96.0691C319.663 96.0691 323.558 94.9236 326.383 91.9455C328.445 94.4655 332.187 95.3055 338.067 94.9236V86.8291C333.027 87.2109 332.11 87.2873 332.11 81.8655V63.9964C332.11 52.6182 327.3 46.7382 313.707 46.7382C303.016 46.7382 298.663 51.3964 296.067 61.8582L304.467 63.92C306.07 57.3527 307.445 55.8255 313.707 55.8255C321.42 55.8255 323.329 57.7345 323.329 63.9964V65.6764H313.707C300.267 65.6764 295.38 68.8836 295.38 81.1018C295.38 91.7927 300.267 96.0691 313.707 96.0691ZM313.707 87.9745C305.841 87.9745 304.161 86.4473 304.161 81.1018C304.161 74.1527 305.918 73.7709 313.707 73.7709H323.329V77.5127C323.329 85.6836 321.42 87.9745 313.707 87.9745ZM359.639 96.0691C375.293 96.0691 381.097 91.8691 381.097 81.2545C381.097 71.0218 376.133 68.0436 362.235 66.0582C355.515 65.1418 352.919 64.6073 352.919 60.9418C352.919 56.2073 354.828 54.8327 363.457 54.8327C369.795 54.8327 371.246 56.2073 374.3 62.0109L380.715 55.7491C376.668 49.0291 372.468 46.7382 363.457 46.7382C349.33 46.7382 344.137 50.7855 344.137 60.9418C344.137 69.7236 349.864 72.8545 361.624 74.3055C370.406 75.4509 372.239 75.9855 372.239 81.2545C372.239 86.3709 370.024 87.9745 359.639 87.9745C354.064 87.9745 352.69 86.4473 349.864 79.9564L342.915 85.6836C346.886 93.32 351.086 96.0691 359.639 96.0691ZM398.774 95V65.6764C398.774 56.5891 400.301 54.8327 408.167 54.8327C415.498 54.8327 417.712 58.4218 417.712 72.5491V95H426.494V72.5491C426.494 53.6109 421.836 46.7382 408.167 46.7382C404.349 46.7382 401.294 47.2727 398.774 48.1127V33.9091H389.992V95H398.774Z" fill="url(#paint2_linear)"/>
</g>
<path d="M49.5231 92.0691C58.9922 92.0691 62.734 89.3964 65.0249 81.6073L56.7777 78.7818C55.4795 83.1345 55.0977 83.9745 49.5231 83.9745C44.5595 83.9745 42.8795 81.6836 42.8795 73.1309V50.9855H58.6868V42.8909H42.8795V29.9091H34.0977V42.8909H24.6286V50.9855H34.0977V73.1309C34.0977 86.6473 38.4504 92.0691 49.5231 92.0691ZM88.4295 92.0691C94.3859 92.0691 98.2804 90.9236 101.106 87.9455C103.168 90.4655 106.909 91.3055 112.789 90.9236V82.8291C107.749 83.2109 106.833 83.2873 106.833 77.8655V59.9964C106.833 48.6182 102.022 42.7382 88.4295 42.7382C77.7386 42.7382 73.3859 47.3964 70.7895 57.8582L79.1895 59.92C80.7931 53.3527 82.1677 51.8255 88.4295 51.8255C96.1422 51.8255 98.0513 53.7345 98.0513 59.9964V61.6764H88.4295C74.9895 61.6764 70.1022 64.8836 70.1022 77.1018C70.1022 87.7927 74.9895 92.0691 88.4295 92.0691ZM88.4295 83.9745C80.564 83.9745 78.884 82.4473 78.884 77.1018C78.884 70.1527 80.6404 69.7709 88.4295 69.7709H98.0513V73.5127C98.0513 81.6836 96.1422 83.9745 88.4295 83.9745ZM136.118 105.967C149.787 105.967 154.598 100.469 154.598 86.1127V43.8073H145.816V44.2655C143.067 43.3491 139.783 42.7382 135.583 42.7382C121.685 42.7382 116.645 48.6182 116.645 62.7455C116.645 81.3018 121.456 88.48 135.583 88.48C139.707 88.48 142.99 87.7164 145.816 86.6473V86.8C145.816 95.5818 143.754 97.8727 136.118 97.8727C131.612 97.8727 130.467 97.1091 127.718 93.8255L121.303 99.3236C125.427 104.287 128.94 105.967 136.118 105.967ZM135.583 80.3855C127.794 80.3855 125.503 76.4909 125.503 62.7455C125.503 53.6582 127.641 50.8327 135.583 50.8327C142.99 50.8327 145.816 52.6655 145.816 55.2618V69.6945C145.816 76.8727 142.99 80.3855 135.583 80.3855ZM205.951 91C201.293 87.2582 197.017 83.44 193.122 79.6982C195.184 75.6509 196.482 70.84 196.94 65.3418H203.355V57.2473H182.05V65.3418H188.159C187.853 68.1673 187.319 70.6873 186.555 72.9018C182.89 68.9309 179.759 64.96 177.239 61.2182L177.544 60.9891C183.424 56.4073 187.319 49.1527 187.319 42.9673C187.319 34.4145 182.202 28.84 174.49 28.84C166.471 28.84 161.202 34.72 161.202 43.7309C161.202 48.3891 163.111 54.04 166.548 60.2255C161.737 65.8764 158.759 72.3673 158.759 77.56C158.759 86.2655 164.562 92.0691 173.497 92.0691C179.224 92.0691 184.111 90.0836 188.006 86.5709C189.61 88.0218 191.29 89.5491 192.97 91H205.951ZM174.184 36.9345C176.857 36.9345 178.613 39.3782 178.613 42.9673C178.613 46.3273 176.399 50.5273 172.962 53.9636C170.977 50.0691 169.908 46.48 169.908 43.5018C169.908 39.5309 171.588 36.9345 174.184 36.9345ZM167.464 77.4836C167.464 74.5055 168.839 70.9927 171.206 67.6327C174.26 71.8327 177.85 76.2618 181.973 80.5382C179.682 82.7527 176.78 83.9745 173.497 83.9745C169.831 83.9745 167.464 81.3782 167.464 77.4836ZM232.945 92.0691C242.414 92.0691 246.156 89.3964 248.447 81.6073L240.2 78.7818C238.901 83.1345 238.52 83.9745 232.945 83.9745C227.981 83.9745 226.301 81.6836 226.301 73.1309V50.9855H242.109V42.8909H226.301V29.9091H217.52V42.8909H208.05V50.9855H217.52V73.1309C217.52 86.6473 221.872 92.0691 232.945 92.0691ZM266.811 91V66.7927C266.811 57.0945 269.408 50.8327 277.808 50.8327C282.771 50.8327 283.993 52.2836 286.055 58.6218L293.92 55.0327C290.56 45.9455 286.513 42.7382 277.808 42.7382C272.844 42.7382 268.797 45.5636 266.811 47.7018V43.8073H258.03V91H266.811ZM317.707 92.0691C323.663 92.0691 327.558 90.9236 330.383 87.9455C332.445 90.4655 336.187 91.3055 342.067 90.9236V82.8291C337.027 83.2109 336.11 83.2873 336.11 77.8655V59.9964C336.11 48.6182 331.3 42.7382 317.707 42.7382C307.016 42.7382 302.663 47.3964 300.067 57.8582L308.467 59.92C310.07 53.3527 311.445 51.8255 317.707 51.8255C325.42 51.8255 327.329 53.7345 327.329 59.9964V61.6764H317.707C304.267 61.6764 299.38 64.8836 299.38 77.1018C299.38 87.7927 304.267 92.0691 317.707 92.0691ZM317.707 83.9745C309.841 83.9745 308.161 82.4473 308.161 77.1018C308.161 70.1527 309.918 69.7709 317.707 69.7709H327.329V73.5127C327.329 81.6836 325.42 83.9745 317.707 83.9745ZM363.639 92.0691C379.293 92.0691 385.097 87.8691 385.097 77.2545C385.097 67.0218 380.133 64.0436 366.235 62.0582C359.515 61.1418 356.919 60.6073 356.919 56.9418C356.919 52.2073 358.828 50.8327 367.457 50.8327C373.795 50.8327 375.246 52.2073 378.3 58.0109L384.715 51.7491C380.668 45.0291 376.468 42.7382 367.457 42.7382C353.33 42.7382 348.137 46.7855 348.137 56.9418C348.137 65.7236 353.864 68.8545 365.624 70.3055C374.406 71.4509 376.239 71.9855 376.239 77.2545C376.239 82.3709 374.024 83.9745 363.639 83.9745C358.064 83.9745 356.69 82.4473 353.864 75.9564L346.915 81.6836C350.886 89.32 355.086 92.0691 363.639 92.0691ZM402.774 91V61.6764C402.774 52.5891 404.301 50.8327 412.167 50.8327C419.498 50.8327 421.712 54.4218 421.712 68.5491V91H430.494V68.5491C430.494 49.6109 425.836 42.7382 412.167 42.7382C408.349 42.7382 405.294 43.2727 402.774 44.1127V29.9091H393.992V91H402.774Z" fill="url(#paint3_linear)"/>
<defs>
<filter id="filter0_f" x="212.042" y="155.8" width="134.847" height="67.6" filterUnits="userSpaceOnUse" color-interpolation-filters="sRGB">
<feFlood flood-opacity="0" result="BackgroundImageFix"/>
<feBlend mode="normal" in="SourceGraphic" in2="BackgroundImageFix" result="shape"/>
<feGaussianBlur stdDeviation="2" result="effect1_foregroundBlur"/>
</filter>
<filter id="filter1_f" x="16.6286" y="28.84" width="413.866" height="85.1273" filterUnits="userSpaceOnUse" color-interpolation-filters="sRGB">
<feFlood flood-opacity="0" result="BackgroundImageFix"/>
<feBlend mode="normal" in="SourceGraphic" in2="BackgroundImageFix" result="shape"/>
<feGaussianBlur stdDeviation="2" result="effect1_foregroundBlur"/>
</filter>
<linearGradient id="paint0_linear" x1="270.5" y1="137" x2="270.5" y2="237" gradientUnits="userSpaceOnUse">
<stop stop-color="#4A9EFF"/>
<stop offset="1" stop-color="#344055"/>
<stop offset="1" stop-color="#161C23"/>
</linearGradient>
<linearGradient id="paint1_linear" x1="274.5" y1="133" x2="274.5" y2="233" gradientUnits="userSpaceOnUse">
<stop stop-color="#4A9EFF"/>
<stop offset="1" stop-color="#344055"/>
<stop offset="1" stop-color="#161C23"/>
</linearGradient>
<linearGradient id="paint2_linear" x1="448" y1="62.7205" x2="-7.82284e-05" y2="62.7205" gradientUnits="userSpaceOnUse">
<stop stop-color="#FF453A"/>
<stop offset="0.166667" stop-color="#FCD755"/>
<stop offset="0.333333" stop-color="#FF9F0A"/>
<stop offset="0.5" stop-color="#3FD747"/>
<stop offset="0.666667" stop-color="#3DFAFF"/>
<stop offset="0.833333" stop-color="#0A84FF"/>
<stop offset="1" stop-color="#BF5AF2"/>
</linearGradient>
<linearGradient id="paint3_linear" x1="452" y1="58.7205" x2="3.99992" y2="58.7205" gradientUnits="userSpaceOnUse">
<stop stop-color="#FF453A"/>
<stop offset="0.166667" stop-color="#FCD755"/>
<stop offset="0.333333" stop-color="#FF9F0A"/>
<stop offset="0.5" stop-color="#3FD747"/>
<stop offset="0.666667" stop-color="#3DFAFF"/>
<stop offset="0.833333" stop-color="#0A84FF"/>
<stop offset="1" stop-color="#BF5AF2"/>
</linearGradient>
</defs>
</svg>
